<svg version="1.1" viewBox="0 0 180 180" xmlns="http://www.w3.org/2000/svg">
  <g fill-rule="evenodd">
    <rect width="180" height="180" ry="0"/>
    <g fill="#00aa53">
      <path d="m108 43h-11l-3-3-4 4-1.5-1.5 4-4-1.5-1.5-4 4-1.5-1.5 4-4-1.5-1.5-4 4-1.5-1.5 4-4-1.5-1.5-10 9-6-6v11l7.9603-0.0397 2.0397 2.0397h33z"/>
      <path d="m69 48v5h11l-5-5z"/>
      <path d="m81 50 3 3h30v-3z"/>
    </g>
    <g fill="#545454">
      <path d="m90 167.5c-1.385 0-2.5 1.115-2.5 2.5s1.115 2.5 2.5 2.5 2.5-1.115 2.5-2.5-1.115-2.5-2.5-2.5z"/>
      <path d="m48.75 18.553c-1.1994 0.6925-1.6076 2.2156-0.91506 3.4151 0.6925 1.1994 2.2156 1.6076 3.4151 0.91506 1.1994-0.6925 1.6076-2.2156 0.91506-3.4151-0.6925-1.1994-2.2156-1.6076-3.4151-0.91507zm80 138.56c-1.1994 0.6925-1.6076 2.2156-0.91506 3.415 0.6925 1.1995 2.2156 1.6076 3.4151 0.9151 1.1994-0.6925 1.6076-2.2156 0.91506-3.4151-0.6925-1.1994-2.2156-1.6075-3.4151-0.91503z"/>
      <path d="m18.553 48.75c-0.6925 1.1994-0.28438 2.7226 0.91507 3.4151 1.1994 0.69249 2.7226 0.28437 3.4151-0.91507 0.6925-1.1994 0.28438-2.7226-0.91506-3.4151-1.1994-0.69251-2.7226-0.28439-3.4151 0.91506zm138.56 80c-0.6925 1.1994-0.28438 2.7226 0.91504 3.415 1.1995 0.69254 2.7226 0.28441 3.4151-0.91504 0.6925-1.1994 0.28438-2.7226-0.91507-3.4151-1.1994-0.69249-2.7226-0.28437-3.4151 0.91507z"/>
      <path d="m7.5 90c-3e-6 1.385 1.115 2.5 2.5 2.5 1.385-1e-5 2.5-1.115 2.5-2.5-2e-6 -1.385-1.115-2.5-2.5-2.5-1.385 0-2.5 1.115-2.5 2.5zm160 0c0 1.385 1.115 2.5 2.5 2.5 1.385 2e-5 2.5-1.115 2.5-2.5 1e-5 -1.385-1.115-2.5-2.5-2.5s-2.5 1.115-2.5 2.5z"/>
      <path d="m18.553 131.25c0.6925 1.1994 2.2156 1.6076 3.4151 0.91507 1.1994-0.6925 1.6076-2.2156 0.91505-3.4151-0.6925-1.1994-2.2156-1.6076-3.4151-0.91506-1.1995 0.6925-1.6076 2.2156-0.91507 3.4151zm138.56-80c0.6925 1.1994 2.2156 1.6076 3.415 0.91507 1.1995-0.69251 1.6076-2.2156 0.91509-3.4151-0.69249-1.1994-2.2156-1.6076-3.4151-0.91506-1.1994 0.6925-1.6076 2.2156-0.91506 3.4151z"/>
      <path d="m48.75 161.45c1.1994 0.6925 2.7226 0.2844 3.4151-0.9151 0.69249-1.1994 0.28437-2.7225-0.91507-3.415-1.1994-0.69249-2.7226-0.28438-3.4151 0.91503-0.69251 1.1995-0.28439 2.7226 0.91505 3.4151zm80-138.56c1.1994 0.6925 2.7226 0.28438 3.415-0.91504 0.69254-1.1995 0.2844-2.7226-0.91505-3.4151-1.1994-0.69251-2.7226-0.28438-3.4151 0.91506-0.6925 1.1994-0.28438 2.7226 0.91507 3.4151z"/>
    </g>
  </g>
</svg>
