<svg version="1.1" viewBox="0 0 144 168" xmlns="http://www.w3.org/2000/svg">
  <g fill-rule="evenodd">
    <rect width="144" height="168"/>
    <g fill="#fff">
      <path d="m13 10c-1.108 0-2 0.892-2 2v144c0 1.108 0.892 2 2 2h119c1.108 0 2-0.892 2-2v-144c0-1.108-0.89199-2-2-2zm0 2h119v144h-119z"/>
      <path d="m26 133v-8h2l8 9h-4l-1-1z"/>
      <path d="m26 134v3h8l-3-3z"/>
      <path d="m33 135 2 2"/>
      <path d="m33 135 2 2h20v-2z"/>
      <path d="m32 128 5 6h18v-1l-2-2h-8l-3-2-3 3-1-1 3-3-2-2-3 3-1-1 3-3-1-1h-1z"/>
      <path d="m25 102v-6l4-4h3l3 3 3-3h3l4 4v6l-10 10z"/>
    </g>
  </g>
</svg>
