<svg version="1.1" viewBox="0 0 180 180" xmlns="http://www.w3.org/2000/svg">
  <g fill-rule="evenodd">
    <rect x="1.1e-5" width="180" height="180" ry="0" stroke-linecap="round" stroke-linejoin="round" stroke-width="3"/>
    <path d="m90 0c-0.33548 0-0.66541 0.022-1 0.025v15.975h2v-15.975c-0.33459 0-0.66452-0.025-1-0.025zm-44.135 11.559-1.7305 1 7.5 12.99 1.7305-1zm88.27 0-7.5 12.99 1.7305 1 7.5-12.99zm-121.58 32.576-1 1.7304 12.99 7.5 1-1.7304zm154.88 0-12.99 7.5 1 1.7304 12.99-7.5zm-167.42 44.865c-4e-3 0.3346-0.0254 0.6645-0.0254 1s0.0218 0.6654 0.0254 1h14.975v-2zm164.97 0v2h14.975c4e-3 -0.3346 0.0254-0.6645 0.0254-1s-0.0218-0.6654-0.0254-1zm-140.45 37.635-12.99 7.5 1 1.7304 12.99-7.5zm130.9 0-1 1.7304 12.99 7.5 1-1.7304zm-103.82 27.816-7.5 12.99 1.7305 1 7.5-12.99zm76.73 0-1.7305 1 7.5 12.99 1.7305-1zm-39.365 10.549v14.975c0.33459 0 0.66452 0.025 1 0.025s0.66541-0.022 1-0.025v-14.975z" fill="#545454"/>
    <path d="m81.59 0.4004c-0.14389 0.013-0.2899 0.019-0.43359 0.033l-0.91406 0.096c-0.21545 0.023-0.4276 0.058-0.64258 0.082l0.83398 7.9414 1.9902-0.2089zm16.82 0-0.83399 7.9434 1.9902 0.2089 0.83398-7.9414c-0.21498-0.024-0.42713-0.059-0.64258-0.082l-0.91406-0.096c-0.14369-0.014-0.2897-0.02-0.43359-0.033zm-26.145 1.3594-1.9551 0.414 1.6621 7.8262 1.957-0.416zm35.469 0-1.6641 7.8242 1.957 0.416 1.6621-7.8262zm-44.596 2.3359-1.9004 0.6191 2.4707 7.6075 1.9024-0.6172zm53.723 0-2.4727 7.6094 1.9024 0.6172 2.4707-7.6075zm-62.555 3.2793-1.8262 0.8125 3.2539 7.3086 1.8262-0.8145zm71.387 0-3.2539 7.3066 1.8262 0.8145 3.2539-7.3086zm-87.785 9.2266-1.6172 1.1738 4.7012 6.4726 1.6191-1.1757zm104.18 0-4.7031 6.4707 1.6191 1.1757 4.7012-6.4726zm-111.57 5.8457-1.4863 1.3379 5.3535 5.9453 1.4863-1.3379zm118.96 0-5.3535 5.9453 1.4863 1.3379 5.3535-5.9453zm-125.69 6.5879-1.3379 1.4863 5.9453 5.3535 1.3379-1.4863zm132.43 0-5.9453 5.3535 1.3379 1.4863 5.9453-5.3535zm-138.44 7.2558-1.1738 1.6172 6.4707 4.7031 1.1758-1.6191zm144.45 0-6.4727 4.7012 1.1758 1.6191 6.4707-4.7031zm-154.04 16.19-0.8125 1.8261 7.3066 3.2539 0.81445-1.8261zm163.62 0-7.3086 3.2539 0.81445 1.8261 7.3066-3.2539zm-167.1 8.7578-0.61914 1.9004 7.6094 2.4726 0.61719-1.9023zm170.57 0-7.6074 2.4707 0.61719 1.9023 7.6094-2.4726zm-173.11 9.0722-0.41406 1.9551 7.8242 1.6641 0.41602-1.957zm175.65 0-7.8262 1.6622 0.41602 1.957 7.8242-1.6641zm-177.21 9.2891c-0.0247 0.2163-0.0589 0.4298-0.082 0.6465l-0.0957 0.9043c-0.014 0.1449-0.0179 0.2924-0.0312 0.4375l7.9434 0.8359 0.20899-1.9902zm178.78 0-7.9434 0.834 0.21094 1.9902 7.9434-0.834c-0.0132-0.1438-0.0193-0.2899-0.0332-0.4336l-0.0957-0.914c-0.023-0.2155-0.0575-0.4276-0.082-0.6426zm-171.04 17.977-7.9434 0.834c0.0132 0.1438 0.0193 0.2899 0.0332 0.4336l0.0957 0.914c0.023 0.2155 0.0575 0.4276 0.082 0.6426l7.9434-0.834zm163.31 0-0.20899 1.9902 7.9434 0.834c0.0247-0.2163 0.0589-0.4298 0.082-0.6465l0.0957-0.9043c0.014-0.1449 0.0179-0.2924 0.0312-0.4375zm-162.07 8.4941-7.8242 1.6641 0.41406 1.9551 7.8262-1.6622zm160.83 0-0.41602 1.957 7.8262 1.6622 0.41406-1.9551zm-158.71 8.3184-7.6094 2.4726 0.61914 1.9004 7.6074-2.4707zm156.59 0-0.61719 1.9023 7.6074 2.4707 0.61914-1.9004zm-153.61 8.0508-7.3066 3.2539 0.8125 1.8261 7.3086-3.2539zm150.64 0-0.81445 1.8261 7.3086 3.2539 0.8125-1.8261zm-142.25 14.949-6.4707 4.7031 1.1738 1.6172 6.4727-4.7012zm133.86 0-1.1758 1.6191 6.4727 4.7012 1.1738-1.6172zm-128.54 6.7363-5.9453 5.3535 1.3379 1.4863 5.9453-5.3535zm123.21 0-1.3379 1.4863 5.9453 5.3535 1.3379-1.4863zm-117.22 6.1445-5.3535 5.9453 1.4863 1.3379 5.3535-5.9453zm111.22 0-1.4863 1.3379 5.3535 5.9453 1.4863-1.3379zm-104.62 5.4825-4.7012 6.4726 1.6172 1.1738 4.7031-6.4707zm98.016 0-1.6191 1.1757 4.7031 6.4707 1.6172-1.1738zm-83.273 8.7519-3.2539 7.3086 1.8262 0.8125 3.2539-7.3066zm68.531 0-1.8262 0.8145 3.2539 7.3066 1.8262-0.8125zm-60.557 3.1738-2.4707 7.6075 1.9004 0.6191 2.4727-7.6094zm52.582 0-1.9024 0.6172 2.4727 7.6094 1.9004-0.6191zm-44.318 2.3223-1.6621 7.8262 1.9551 0.414 1.6641-7.8242zm36.055 0-1.957 0.416 1.6641 7.8242 1.9551-0.414zm-27.594 1.4473-0.83398 7.9414c0.21498 0.024 0.42713 0.059 0.64258 0.082l0.91406 0.096c0.14369 0.014 0.2897 0.02 0.43359 0.033l0.83399-7.9434zm19.133 0-1.9902 0.2089 0.83399 7.9434c0.14389-0.013 0.2899-0.019 0.43359-0.033l0.91406-0.096c0.21545-0.023 0.4276-0.058 0.64258-0.082z" fill="#545454"/>
  </g>
</svg>
