<?xml version="1.0" encoding="UTF-8" standalone="no"?>
<svg
   xmlns:dc="http://purl.org/dc/elements/1.1/"
   xmlns:cc="http://creativecommons.org/ns#"
   xmlns:rdf="http://www.w3.org/1999/02/22-rdf-syntax-ns#"
   xmlns:svg="http://www.w3.org/2000/svg"
   xmlns="http://www.w3.org/2000/svg"
   xmlns:sodipodi="http://sodipodi.sourceforge.net/DTD/sodipodi-0.dtd"
   xmlns:inkscape="http://www.inkscape.org/namespaces/inkscape"
   inkscape:export-ydpi="344.11752"
   inkscape:export-xdpi="344.11752"
   inkscape:export-filename="/Users/johannes/Desktop/rebble1010.png"
   sodipodi:docname="rebble.svg"
   inkscape:version="1.0 (4035a4fb49, 2020-05-01)"
   version="1.1"
   id="svg2"
   viewbox="0 0 88 136.00005"
   height="136.00005"
   width="88"
   class="watch">
  <sodipodi:namedview
     inkscape:current-layer="layer1"
     inkscape:window-maximized="1"
     inkscape:window-y="-12"
     inkscape:window-x="-12"
     inkscape:cy="68.000023"
     inkscape:cx="44"
     inkscape:zoom="7.4117622"
     showgrid="false"
     id="namedview94"
     inkscape:window-height="2050"
     inkscape:window-width="3840"
     inkscape:pageshadow="2"
     inkscape:pageopacity="0"
     guidetolerance="10"
     gridtolerance="10"
     objecttolerance="10"
     borderopacity="1"
     bordercolor="#666666"
     pagecolor="#ffffff" />
  <defs
     id="defs4">
    <marker
       inkscape:isstock="true"
       style="overflow:visible"
       id="SquareL"
       refx="0"
       refy="0"
       orient="auto"
       inkscape:stockid="SquareL">
      <path
         inkscape:connector-curvature="0"
         transform="scale(0.8,0.8)"
         style="fill-rule:evenodd;stroke:#000000;stroke-width:1pt"
         d="M -5,-5 L -5,5 L 5,5 L 5,-5 l -10,0 z"
         id="path4252" />
    </marker>
    <marker
       inkscape:isstock="true"
       style="overflow:visible"
       id="DotS"
       refx="0"
       refy="0"
       orient="auto"
       inkscape:stockid="DotS">
      <path
         inkscape:connector-curvature="0"
         transform="matrix(0.2,0,0,0.2,1.48,0.2)"
         style="fill-rule:evenodd;stroke:#000000;stroke-width:1pt"
         d="m -2.5,-1 c 0,2.76 -2.24,5 -5,5 c -2.76,0 -5,-2.24 -5,-5 c 0,-2.76 2.24,-5 5,-5 c 2.76,0 5,2.24 5,5 z"
         id="path4249" />
    </marker>
    <marker
       inkscape:isstock="true"
       style="overflow:visible"
       id="DotM"
       refx="0"
       refy="0"
       orient="auto"
       inkscape:stockid="DotM">
      <path
         inkscape:connector-curvature="0"
         transform="matrix(0.4,0,0,0.4,2.96,0.4)"
         style="fill-rule:evenodd;stroke:#000000;stroke-width:1pt"
         d="m -2.5,-1 c 0,2.76 -2.24,5 -5,5 c -2.76,0 -5,-2.24 -5,-5 c 0,-2.76 2.24,-5 5,-5 c 2.76,0 5,2.24 5,5 z"
         id="path4246" />
    </marker>
    <marker
       inkscape:isstock="true"
       style="overflow:visible"
       id="DotL"
       refx="0"
       refy="0"
       orient="auto"
       inkscape:stockid="DotL">
      <path
         inkscape:connector-curvature="0"
         transform="matrix(0.8,0,0,0.8,5.92,0.8)"
         style="fill-rule:evenodd;stroke:#000000;stroke-width:1pt"
         d="m -2.5,-1 c 0,2.76 -2.24,5 -5,5 c -2.76,0 -5,-2.24 -5,-5 c 0,-2.76 2.24,-5 5,-5 c 2.76,0 5,2.24 5,5 z"
         id="path4243" />
    </marker>
    <marker
       inkscape:isstock="true"
       inkscape:stockid="DistanceEnd"
       orient="auto"
       refy="0"
       refx="0"
       id="DistanceEnd"
       style="overflow:visible">
      <g
         id="g2301">
        <path
           inkscape:connector-curvature="0"
           id="path2316"
           d="M 0,0 L -2,0"
           style="fill:none;stroke:#ffffff;stroke-width:1.14999998;stroke-linecap:square" />
        <path
           inkscape:connector-curvature="0"
           id="path2312"
           d="m 0,0 l -13,4 l 4,-4 l -4,-4 L 0,0 Z"
           style="fill:#000000;fill-rule:evenodd;stroke:none" />
        <path
           inkscape:connector-curvature="0"
           id="path2314"
           d="M 0,-4 L 0,40"
           style="fill:none;stroke:#000000;stroke-width:1;stroke-linecap:square" />
      </g>
    </marker>
    <marker
       inkscape:isstock="true"
       inkscape:stockid="DistanceStart"
       orient="auto"
       refy="0"
       refx="0"
       id="DistanceStart"
       style="overflow:visible">
      <g
         id="g2300">
        <path
           inkscape:connector-curvature="0"
           id="path2306"
           d="M 0,0 L 2,0"
           style="fill:none;stroke:#ffffff;stroke-width:1.14999998;stroke-linecap:square" />
        <path
           inkscape:connector-curvature="0"
           id="path2302"
           d="M 0,0 L 13,4 L 9,0 l 4,-4 L 0,0 Z"
           style="fill:#000000;fill-rule:evenodd;stroke:none" />
        <path
           inkscape:connector-curvature="0"
           id="path2304"
           d="M 0,-4 L 0,40"
           style="fill:none;stroke:#000000;stroke-width:1;stroke-linecap:square" />
      </g>
    </marker>
    <marker
       inkscape:isstock="true"
       style="overflow:visible"
       id="marker4615"
       refx="0"
       refy="0"
       orient="auto"
       inkscape:stockid="Tail">
      <g
         transform="scale(-1.2,-1.2)"
         id="g4617">
        <path
           inkscape:connector-curvature="0"
           style="fill:none;fill-rule:evenodd;stroke:#000000;stroke-width:0.80000001;stroke-linecap:round"
           d="M -3.8048674,-3.9585227 L 0.54352094,0"
           id="path4619" />
        <path
           inkscape:connector-curvature="0"
           style="fill:none;fill-rule:evenodd;stroke:#000000;stroke-width:0.80000001;stroke-linecap:round"
           d="M -1.2866832,-3.9585227 L 3.0617053,0"
           id="path4621" />
        <path
           inkscape:connector-curvature="0"
           style="fill:none;fill-rule:evenodd;stroke:#000000;stroke-width:0.80000001;stroke-linecap:round"
           d="M 1.3053582,-3.9585227 L 5.6537466,0"
           id="path4623" />
        <path
           inkscape:connector-curvature="0"
           style="fill:none;fill-rule:evenodd;stroke:#000000;stroke-width:0.80000001;stroke-linecap:round"
           d="M -3.8048674,4.1775838 L 0.54352094,0.21974226"
           id="path4625" />
        <path
           inkscape:connector-curvature="0"
           style="fill:none;fill-rule:evenodd;stroke:#000000;stroke-width:0.80000001;stroke-linecap:round"
           d="M -1.2866832,4.1775838 L 3.0617053,0.21974226"
           id="path4627" />
        <path
           inkscape:connector-curvature="0"
           style="fill:none;fill-rule:evenodd;stroke:#000000;stroke-width:0.80000001;stroke-linecap:round"
           d="M 1.3053582,4.1775838 L 5.6537466,0.21974226"
           id="path4629" />
      </g>
    </marker>
    <marker
       inkscape:isstock="true"
       style="overflow:visible"
       id="marker4611"
       refx="0"
       refy="0"
       orient="auto"
       inkscape:stockid="Arrow2Send">
      <path
         inkscape:connector-curvature="0"
         transform="matrix(-0.3,0,0,-0.3,0.69,0)"
         d="M 8.7185878,4.0337352 L -2.2072895,0.01601326 L 8.7185884,-4.0017078 c -1.7454984,2.3720609 -1.7354408,5.6174519 -6e-7,8.035443 z"
         style="fill-rule:evenodd;stroke-width:0.625;stroke-linejoin:round"
         id="path4613" />
    </marker>
    <marker
       inkscape:isstock="true"
       style="overflow:visible"
       id="marker4607"
       refx="0"
       refy="0"
       orient="auto"
       inkscape:stockid="Arrow2Sstart">
      <path
         inkscape:connector-curvature="0"
         transform="matrix(0.3,0,0,0.3,-0.69,0)"
         d="M 8.7185878,4.0337352 L -2.2072895,0.01601326 L 8.7185884,-4.0017078 c -1.7454984,2.3720609 -1.7354408,5.6174519 -6e-7,8.035443 z"
         style="fill-rule:evenodd;stroke-width:0.625;stroke-linejoin:round"
         id="path4609" />
    </marker>
    <marker
       inkscape:isstock="true"
       style="overflow:visible"
       id="marker4603"
       refx="0"
       refy="0"
       orient="auto"
       inkscape:stockid="Arrow2Mend">
      <path
         inkscape:connector-curvature="0"
         transform="scale(-0.6,-0.6)"
         d="M 8.7185878,4.0337352 L -2.2072895,0.01601326 L 8.7185884,-4.0017078 c -1.7454984,2.3720609 -1.7354408,5.6174519 -6e-7,8.035443 z"
         style="fill-rule:evenodd;stroke-width:0.625;stroke-linejoin:round"
         id="path4605" />
    </marker>
    <marker
       inkscape:isstock="true"
       style="overflow:visible"
       id="marker4599"
       refx="0"
       refy="0"
       orient="auto"
       inkscape:stockid="Arrow2Mstart">
      <path
         inkscape:connector-curvature="0"
         transform="scale(0.6,0.6)"
         d="M 8.7185878,4.0337352 L -2.2072895,0.01601326 L 8.7185884,-4.0017078 c -1.7454984,2.3720609 -1.7354408,5.6174519 -6e-7,8.035443 z"
         style="fill-rule:evenodd;stroke-width:0.625;stroke-linejoin:round"
         id="path4601" />
    </marker>
    <marker
       inkscape:isstock="true"
       style="overflow:visible"
       id="marker4595"
       refx="0"
       refy="0"
       orient="auto"
       inkscape:stockid="Arrow2Lend">
      <path
         inkscape:connector-curvature="0"
         transform="matrix(-1.1,0,0,-1.1,-1.1,0)"
         d="M 8.7185878,4.0337352 L -2.2072895,0.01601326 L 8.7185884,-4.0017078 c -1.7454984,2.3720609 -1.7354408,5.6174519 -6e-7,8.035443 z"
         style="fill-rule:evenodd;stroke-width:0.625;stroke-linejoin:round"
         id="path4597" />
    </marker>
    <marker
       inkscape:isstock="true"
       style="overflow:visible"
       id="marker4591"
       refx="0"
       refy="0"
       orient="auto"
       inkscape:stockid="Arrow2Lstart">
      <path
         inkscape:connector-curvature="0"
         transform="matrix(1.1,0,0,1.1,1.1,0)"
         d="M 8.7185878,4.0337352 L -2.2072895,0.01601326 L 8.7185884,-4.0017078 c -1.7454984,2.3720609 -1.7354408,5.6174519 -6e-7,8.035443 z"
         style="fill-rule:evenodd;stroke-width:0.625;stroke-linejoin:round"
         id="path4593" />
    </marker>
    <marker
       inkscape:isstock="true"
       style="overflow:visible"
       id="marker4587"
       refx="0"
       refy="0"
       orient="auto"
       inkscape:stockid="Arrow1Send">
      <path
         inkscape:connector-curvature="0"
         transform="matrix(-0.2,0,0,-0.2,-1.2,0)"
         style="fill-rule:evenodd;stroke:#000000;stroke-width:1pt"
         d="M 0,0 L 5,-5 L -12.5,0 L 5,5 L 0,0 Z"
         id="path4589" />
    </marker>
    <marker
       inkscape:isstock="true"
       style="overflow:visible"
       id="marker4583"
       refx="0"
       refy="0"
       orient="auto"
       inkscape:stockid="Arrow1Sstart">
      <path
         inkscape:connector-curvature="0"
         transform="matrix(0.2,0,0,0.2,1.2,0)"
         style="fill-rule:evenodd;stroke:#000000;stroke-width:1pt"
         d="M 0,0 L 5,-5 L -12.5,0 L 5,5 L 0,0 Z"
         id="path4585" />
    </marker>
    <marker
       inkscape:isstock="true"
       style="overflow:visible"
       id="marker4579"
       refx="0"
       refy="0"
       orient="auto"
       inkscape:stockid="Arrow1Mend">
      <path
         inkscape:connector-curvature="0"
         transform="matrix(-0.4,0,0,-0.4,-4,0)"
         style="fill-rule:evenodd;stroke:#000000;stroke-width:1pt"
         d="M 0,0 L 5,-5 L -12.5,0 L 5,5 L 0,0 Z"
         id="path4581" />
    </marker>
    <marker
       inkscape:isstock="true"
       style="overflow:visible"
       id="marker4575"
       refx="0"
       refy="0"
       orient="auto"
       inkscape:stockid="Arrow1Mstart">
      <path
         inkscape:connector-curvature="0"
         transform="matrix(0.4,0,0,0.4,4,0)"
         style="fill-rule:evenodd;stroke:#000000;stroke-width:1pt"
         d="M 0,0 L 5,-5 L -12.5,0 L 5,5 L 0,0 Z"
         id="path4577" />
    </marker>
    <marker
       inkscape:isstock="true"
       style="overflow:visible"
       id="marker4571"
       refx="0"
       refy="0"
       orient="auto"
       inkscape:stockid="Arrow1Lend">
      <path
         inkscape:connector-curvature="0"
         transform="matrix(-0.8,0,0,-0.8,-10,0)"
         style="fill-rule:evenodd;stroke:#000000;stroke-width:1pt"
         d="M 0,0 L 5,-5 L -12.5,0 L 5,5 L 0,0 Z"
         id="path4573" />
    </marker>
    <marker
       inkscape:isstock="true"
       style="overflow:visible"
       id="marker4567"
       refx="0"
       refy="0"
       orient="auto"
       inkscape:stockid="Arrow1Lstart">
      <path
         inkscape:connector-curvature="0"
         transform="matrix(0.8,0,0,0.8,10,0)"
         style="fill-rule:evenodd;stroke:#000000;stroke-width:1pt"
         d="M 0,0 L 5,-5 L -12.5,0 L 5,5 L 0,0 Z"
         id="path4569" />
    </marker>
    <marker
       inkscape:isstock="true"
       style="overflow:visible"
       id="Tail"
       refx="0"
       refy="0"
       orient="auto"
       inkscape:stockid="Tail">
      <g
         transform="scale(-1.2,-1.2)"
         id="g4218">
        <path
           inkscape:connector-curvature="0"
           style="fill:none;fill-rule:evenodd;stroke:#000000;stroke-width:0.80000001;stroke-linecap:round"
           d="M -3.8048674,-3.9585227 L 0.54352094,0"
           id="path4220" />
        <path
           inkscape:connector-curvature="0"
           style="fill:none;fill-rule:evenodd;stroke:#000000;stroke-width:0.80000001;stroke-linecap:round"
           d="M -1.2866832,-3.9585227 L 3.0617053,0"
           id="path4222" />
        <path
           inkscape:connector-curvature="0"
           style="fill:none;fill-rule:evenodd;stroke:#000000;stroke-width:0.80000001;stroke-linecap:round"
           d="M 1.3053582,-3.9585227 L 5.6537466,0"
           id="path4224" />
        <path
           inkscape:connector-curvature="0"
           style="fill:none;fill-rule:evenodd;stroke:#000000;stroke-width:0.80000001;stroke-linecap:round"
           d="M -3.8048674,4.1775838 L 0.54352094,0.21974226"
           id="path4226" />
        <path
           inkscape:connector-curvature="0"
           style="fill:none;fill-rule:evenodd;stroke:#000000;stroke-width:0.80000001;stroke-linecap:round"
           d="M -1.2866832,4.1775838 L 3.0617053,0.21974226"
           id="path4228" />
        <path
           inkscape:connector-curvature="0"
           style="fill:none;fill-rule:evenodd;stroke:#000000;stroke-width:0.80000001;stroke-linecap:round"
           d="M 1.3053582,4.1775838 L 5.6537466,0.21974226"
           id="path4230" />
      </g>
    </marker>
    <marker
       inkscape:isstock="true"
       style="overflow:visible"
       id="Arrow2Send"
       refx="0"
       refy="0"
       orient="auto"
       inkscape:stockid="Arrow2Send">
      <path
         inkscape:connector-curvature="0"
         transform="matrix(-0.3,0,0,-0.3,0.69,0)"
         d="M 8.7185878,4.0337352 L -2.2072895,0.01601326 L 8.7185884,-4.0017078 c -1.7454984,2.3720609 -1.7354408,5.6174519 -6e-7,8.035443 z"
         style="fill-rule:evenodd;stroke-width:0.625;stroke-linejoin:round"
         id="path4215" />
    </marker>
    <marker
       inkscape:isstock="true"
       style="overflow:visible"
       id="Arrow2Sstart"
       refx="0"
       refy="0"
       orient="auto"
       inkscape:stockid="Arrow2Sstart">
      <path
         inkscape:connector-curvature="0"
         transform="matrix(0.3,0,0,0.3,-0.69,0)"
         d="M 8.7185878,4.0337352 L -2.2072895,0.01601326 L 8.7185884,-4.0017078 c -1.7454984,2.3720609 -1.7354408,5.6174519 -6e-7,8.035443 z"
         style="fill-rule:evenodd;stroke-width:0.625;stroke-linejoin:round"
         id="path4212" />
    </marker>
    <marker
       inkscape:isstock="true"
       style="overflow:visible"
       id="Arrow2Mend"
       refx="0"
       refy="0"
       orient="auto"
       inkscape:stockid="Arrow2Mend">
      <path
         inkscape:connector-curvature="0"
         transform="scale(-0.6,-0.6)"
         d="M 8.7185878,4.0337352 L -2.2072895,0.01601326 L 8.7185884,-4.0017078 c -1.7454984,2.3720609 -1.7354408,5.6174519 -6e-7,8.035443 z"
         style="fill-rule:evenodd;stroke-width:0.625;stroke-linejoin:round"
         id="path4209" />
    </marker>
    <marker
       inkscape:isstock="true"
       style="overflow:visible"
       id="Arrow2Mstart"
       refx="0"
       refy="0"
       orient="auto"
       inkscape:stockid="Arrow2Mstart">
      <path
         inkscape:connector-curvature="0"
         transform="scale(0.6,0.6)"
         d="M 8.7185878,4.0337352 L -2.2072895,0.01601326 L 8.7185884,-4.0017078 c -1.7454984,2.3720609 -1.7354408,5.6174519 -6e-7,8.035443 z"
         style="fill-rule:evenodd;stroke-width:0.625;stroke-linejoin:round"
         id="path4206" />
    </marker>
    <marker
       inkscape:isstock="true"
       style="overflow:visible"
       id="Arrow2Lend"
       refx="0"
       refy="0"
       orient="auto"
       inkscape:stockid="Arrow2Lend">
      <path
         inkscape:connector-curvature="0"
         transform="matrix(-1.1,0,0,-1.1,-1.1,0)"
         d="M 8.7185878,4.0337352 L -2.2072895,0.01601326 L 8.7185884,-4.0017078 c -1.7454984,2.3720609 -1.7354408,5.6174519 -6e-7,8.035443 z"
         style="fill-rule:evenodd;stroke-width:0.625;stroke-linejoin:round"
         id="path4203" />
    </marker>
    <marker
       inkscape:isstock="true"
       style="overflow:visible"
       id="Arrow2Lstart"
       refx="0"
       refy="0"
       orient="auto"
       inkscape:stockid="Arrow2Lstart">
      <path
         inkscape:connector-curvature="0"
         transform="matrix(1.1,0,0,1.1,1.1,0)"
         d="M 8.7185878,4.0337352 L -2.2072895,0.01601326 L 8.7185884,-4.0017078 c -1.7454984,2.3720609 -1.7354408,5.6174519 -6e-7,8.035443 z"
         style="fill-rule:evenodd;stroke-width:0.625;stroke-linejoin:round"
         id="path4451" />
    </marker>
    <marker
       inkscape:isstock="true"
       style="overflow:visible"
       id="Arrow1Send"
       refx="0"
       refy="0"
       orient="auto"
       inkscape:stockid="Arrow1Send">
      <path
         inkscape:connector-curvature="0"
         transform="matrix(-0.2,0,0,-0.2,-1.2,0)"
         style="fill-rule:evenodd;stroke:#000000;stroke-width:1pt"
         d="M 0,0 L 5,-5 L -12.5,0 L 5,5 L 0,0 Z"
         id="path4197" />
    </marker>
    <marker
       inkscape:isstock="true"
       style="overflow:visible"
       id="Arrow1Sstart"
       refx="0"
       refy="0"
       orient="auto"
       inkscape:stockid="Arrow1Sstart">
      <path
         inkscape:connector-curvature="0"
         transform="matrix(0.2,0,0,0.2,1.2,0)"
         style="fill-rule:evenodd;stroke:#000000;stroke-width:1pt"
         d="M 0,0 L 5,-5 L -12.5,0 L 5,5 L 0,0 Z"
         id="path4194" />
    </marker>
    <marker
       inkscape:isstock="true"
       style="overflow:visible"
       id="Arrow1Mend"
       refx="0"
       refy="0"
       orient="auto"
       inkscape:stockid="Arrow1Mend">
      <path
         inkscape:connector-curvature="0"
         transform="matrix(-0.4,0,0,-0.4,-4,0)"
         style="fill-rule:evenodd;stroke:#000000;stroke-width:1pt"
         d="M 0,0 L 5,-5 L -12.5,0 L 5,5 L 0,0 Z"
         id="path4191" />
    </marker>
    <marker
       inkscape:isstock="true"
       style="overflow:visible"
       id="Arrow1Mstart"
       refx="0"
       refy="0"
       orient="auto"
       inkscape:stockid="Arrow1Mstart">
      <path
         inkscape:connector-curvature="0"
         transform="matrix(0.4,0,0,0.4,4,0)"
         style="fill-rule:evenodd;stroke:#000000;stroke-width:1pt"
         d="M 0,0 L 5,-5 L -12.5,0 L 5,5 L 0,0 Z"
         id="path4188" />
    </marker>
    <marker
       inkscape:isstock="true"
       style="overflow:visible"
       id="Arrow1Lend"
       refx="0"
       refy="0"
       orient="auto"
       inkscape:stockid="Arrow1Lend">
      <path
         inkscape:connector-curvature="0"
         transform="matrix(-0.8,0,0,-0.8,-10,0)"
         style="fill-rule:evenodd;stroke:#000000;stroke-width:1pt"
         d="M 0,0 L 5,-5 L -12.5,0 L 5,5 L 0,0 Z"
         id="path4185" />
    </marker>
    <marker
       inkscape:isstock="true"
       style="overflow:visible"
       id="Arrow1Lstart"
       refx="0"
       refy="0"
       orient="auto"
       inkscape:stockid="Arrow1Lstart">
      <path
         inkscape:connector-curvature="0"
         transform="matrix(0.8,0,0,0.8,10,0)"
         style="fill-rule:evenodd;stroke:#000000;stroke-width:1pt"
         d="M 0,0 L 5,-5 L -12.5,0 L 5,5 L 0,0 Z"
         id="path4182" />
    </marker>
  </defs>
  <namedview
     fit-margin-bottom="0"
     fit-margin-right="0"
     fit-margin-left="0"
     fit-margin-top="0"
     inkscape:window-maximized="1"
     inkscape:window-y="0"
     inkscape:window-x="0"
     inkscape:window-height="852"
     inkscape:window-width="1440"
     units="px"
     showgrid="true"
     inkscape:current-layer="layer1"
     inkscape:document-units="px"
     inkscape:cy="65.131663"
     inkscape:cx="-56.110029"
     inkscape:zoom="2.8"
     inkscape:pageshadow="2"
     inkscape:pageopacity="0.0"
     borderopacity="1.0"
     bordercolor="#666666"
     pagecolor="#ffffff"
     id="base">
    <grid
       originy="4.0000401"
       originx="-20"
       empspacing="8"
       id="grid4136"
       type="xygrid" />
  </namedview>
  <metadata
     id="metadata7">
    <rdf>
      <work
         rdf:about="">
        <format>image/svg+xml</format>
        <type
           rdf:resource="http://purl.org/dc/dcmitype/StillImage" />
        <title />
      </work>
    </rdf>
    <rdf:RDF>
      <cc:Work
         rdf:about="">
        <dc:format>image/svg+xml</dc:format>
        <dc:type
           rdf:resource="http://purl.org/dc/dcmitype/StillImage" />
      </cc:Work>
    </rdf:RDF>
  </metadata>
  <g
     transform="translate(-20,-920.36216)"
     id="layer1"
     inkscape:groupmode="layer"
     inkscape:label="Layer 1">
    <path
       inkscape:connector-curvature="0"
       id="path4929"
       transform="translate(0,924.36216)"
       d="m 64,20 c -0.604051,0 -1.204525,0.01674 -1.802734,0.04102 c -0.165134,0.0067 -0.329475,0.01491 -0.494141,0.02344 c -0.347353,0.01799 -0.691907,0.04426 -1.037109,0.07031 c -0.865643,0.06532 -1.727024,0.146733 -2.578125,0.261718 c -0.870267,0.117575 -1.728514,0.269559 -2.582032,0.4375 c -0.190508,0.03748 -0.380686,0.0753 -0.570312,0.115235 c -0.836371,0.176188 -1.668029,0.368648 -2.486328,0.591797 c -0.02945,0.008 -0.05847,0.0173 -0.08789,0.02539 c -0.8021,0.220542 -1.591765,0.470122 -2.375,0.734375 c -0.198082,0.06683 -0.394978,0.135513 -0.591797,0.205078 c -0.799313,0.282526 -1.591606,0.577555 -2.36914,0.904297 c 0,0 -0.002,0.002 -0.002,0.002 c -0.762482,0.320469 -1.509919,0.669723 -2.25,1.03125 c -0.210035,0.102607 -0.418799,0.20666 -0.626954,0.3125 c -0.707707,0.359816 -1.40859,0.732573 -2.09375,1.128907 c -0.05204,0.03011 -0.104347,0.05953 -0.15625,0.08984 c -0.69284,0.404569 -1.368881,0.832783 -2.037109,1.273438 c -0.171674,0.11323 -0.341726,0.228192 -0.511719,0.34375 c -0.687953,0.467555 -1.367853,0.94648 -2.027344,1.451172 c 0,0 -0.002,0.002 -0.002,0.002 c -0.49308,0.37739 -0.97865,0.764703 -1.455078,1.162109 l 0.01563,0.01563 c -1.025305,0.855531 -2.010202,1.759192 -2.955078,2.701172 L 24,24 l 0,24 l 24,0 l -9.466797,-9.466797 c 0.944673,-0.944473 1.939851,-1.836577 2.984375,-2.671875 c 0.0051,-0.0041 0.01054,-0.0077 0.01563,-0.01172 c 0.427517,-0.341502 0.865416,-0.670127 1.308594,-0.992187 c 0.178049,-0.129332 0.358563,-0.254728 0.539062,-0.38086 c 0.30655,-0.214291 0.616215,-0.424036 0.929688,-0.628906 c 0.204421,-0.133567 0.409899,-0.266986 0.617187,-0.396484 c 0.334305,-0.208864 0.674039,-0.409357 1.015625,-0.607422 c 0.242403,-0.140561 0.484506,-0.280986 0.730469,-0.416016 c 0.403456,-0.221464 0.811856,-0.43632 1.22461,-0.642578 c 0.220154,-0.110036 0.443299,-0.214679 0.666015,-0.320312 c 0.335189,-0.158935 0.672834,-0.312147 1.013672,-0.460938 c 0.208308,-0.09097 0.416595,-0.182403 0.626953,-0.269531 c 0.423295,-0.175235 0.851866,-0.342565 1.283203,-0.501953 c 0.128811,-0.04763 0.255259,-0.100294 0.384766,-0.146484 c 0.04895,-0.01746 0.09938,-0.03157 0.148437,-0.04883 c 0.494339,-0.173783 0.993982,-0.335695 1.498047,-0.488281 c 0.217469,-0.06588 0.437042,-0.125641 0.65625,-0.1875 c 0.381272,-0.107511 0.764028,-0.209501 1.150391,-0.304687 c 0.209285,-0.05161 0.418177,-0.104408 0.628906,-0.152344 c 0.546401,-0.124174 1.096663,-0.238801 1.652344,-0.337891 c 0.05104,-0.0091 0.101227,-0.02041 0.152344,-0.0293 c 0.593576,-0.1032 1.193526,-0.187848 1.796875,-0.261718 c 0.209462,-0.02567 0.420279,-0.04628 0.630859,-0.06836 c 0.423537,-0.04435 0.849477,-0.08172 1.277344,-0.111328 c 0.221519,-0.01535 0.443386,-0.03163 0.666015,-0.04297 C 62.750236,28.021233 63.372555,28 64,28 c 0.612329,0 1.221483,0.01689 1.826172,0.04687 c 0.146037,0.0072 0.289982,0.02228 0.435547,0.03125 c 0.445051,0.02741 0.889621,0.05628 1.330078,0.09961 c 0.24824,0.02443 0.493528,0.06042 0.740234,0.08984 c 0.33734,0.04022 0.6754,0.07753 1.009766,0.126953 c 0.289079,0.04274 0.574567,0.095 0.861328,0.144531 c 0.278542,0.0481 0.557704,0.094 0.833984,0.148438 c 0.304894,0.06009 0.606168,0.129563 0.908203,0.197266 c 0.275246,0.06168 0.551426,0.121538 0.824219,0.189453 c 0.256189,0.06381 0.509716,0.133881 0.763672,0.203125 c 0.314738,0.08578 0.628252,0.173561 0.939453,0.267578 c 0.24183,0.07309 0.481079,0.150519 0.720703,0.228516 c 0.298416,0.09709 0.595726,0.196182 0.890625,0.300781 c 0.256694,0.09109 0.51168,0.186504 0.765625,0.283203 c 0.273998,0.104291 0.547646,0.209582 0.81836,0.320312 c 0.266963,0.109247 0.531246,0.222468 0.794922,0.337891 c 0.247703,0.108375 0.493552,0.220239 0.738281,0.333984 c 0.272817,0.126869 0.545434,0.255223 0.814453,0.388672 c 0.238029,0.118018 0.474,0.240191 0.708984,0.363281 c 0.270829,0.141941 0.539964,0.286965 0.806641,0.435547 c 0.219512,0.122242 0.435709,0.248329 0.652344,0.375 c 0.264219,0.154573 0.527274,0.309638 0.787109,0.470703 c 0.208222,0.129008 0.413795,0.261422 0.619141,0.394532 c 0.280366,0.181832 0.561063,0.365325 0.835937,0.554687 c 0.169528,0.116736 0.33651,0.237869 0.503907,0.357422 c 0.282825,0.202097 0.56519,0.403264 0.841796,0.613281 c 0.149322,0.113304 0.293932,0.232083 0.441407,0.347657 c 0.310506,0.243492 0.619741,0.488801 0.921875,0.742187 c 0.0075,0.0063 0.01597,0.0113 0.02344,0.01758 c 0.04664,0.03916 0.09028,0.08171 0.136719,0.121094 c 0.357256,0.303213 0.711641,0.609025 1.05664,0.925781 c 0.107275,0.09843 0.210342,0.201072 0.316407,0.300781 c 0.299667,0.281895 0.59885,0.565464 0.888672,0.857422 l 0.0039,0.0039 c 0.0146,0.01471 0.02839,0.03019 0.04297,0.04492 c 1.888537,1.909614 3.563679,4.030066 4.988281,6.324219 c 0.007,0.01121 0.01453,0.02198 0.02148,0.0332 c 0.0015,0.0025 0.0024,0.0053 0.0039,0.0078 c 0.285144,0.460573 0.559585,0.92815 0.824218,1.402344 c 0.0011,0.002 0.0028,0.0038 0.0039,0.0059 c 0,0 0,0.002 0,0.002 c 0.266802,0.478354 0.524225,0.963498 0.769532,1.455078 c 0.24037,0.481688 0.468364,0.969101 0.6875,1.462891 c 0.0047,0.01067 0.0109,0.02057 0.01563,0.03125 c 0.0026,0.0059 0.0052,0.01171 0.0078,0.01758 c 0.207728,0.470003 0.403815,0.947324 0.591797,1.427734 c 0.01992,0.05088 0.04085,0.101354 0.06055,0.152344 c 0.178765,0.463102 0.347824,0.930126 0.507813,1.402344 c 0.02116,0.0624 0.04167,0.124948 0.0625,0.1875 c 0.157204,0.472582 0.305376,0.950484 0.443359,1.43164 c 0.01604,0.05588 0.0311,0.111974 0.04687,0.167969 c 0.142227,0.505235 0.275928,1.013256 0.396484,1.527344 c 0.0014,0.0059 0.0025,0.01171 0.0039,0.01758 c 0.0018,0.0078 0.004,0.0156 0.0059,0.02344 c 0.126255,0.541247 0.240145,1.088223 0.341797,1.638671 c 0.101684,0.550625 0.191116,1.104837 0.267578,1.664063 c 0.0011,0.0079 0.0028,0.01555 0.0039,0.02344 c 0.0024,0.01749 0.0035,0.03523 0.0059,0.05273 c 0.07402,0.55004 0.1365,1.104364 0.185547,1.662109 C 99.942778,61.844621 100,62.915722 100,64 c 0,4.21219 -0.726435,8.24785 -2.046875,12 l 8.367185,0 C 107.40537,72.18197 108,68.16008 108,64 c 0,-1.082462 -0.0535,-2.15169 -0.13086,-3.214844 c -0.0517,-0.711234 -0.11976,-1.417559 -0.20508,-2.11914 C 106.55497,49.545315 102.6484,41.275458 96.822266,34.746094 c -0.42379,-0.474942 -0.857093,-0.940312 -1.300782,-1.396485 c -0.02569,-0.02642 -0.05041,-0.05373 -0.07617,-0.08008 c -0.0077,-0.0079 -0.0157,-0.01553 -0.02344,-0.02344 C 95.01908,32.834637 94.60601,32.434576 94.1875,32.039062 c -0.08838,-0.08359 -0.174602,-0.169091 -0.263672,-0.251953 C 93.549655,31.43927 93.167329,31.100453 92.78125,30.765625 c -0.142229,-0.12344 -0.283921,-0.247501 -0.427734,-0.369141 C 91.998374,30.096321 91.636091,29.804631 91.271484,29.515625 C 91.085429,29.368042 90.899408,29.220794 90.710938,29.076172 C 90.363034,28.809395 90.010247,28.549495 89.654297,28.292969 C 89.455878,28.149874 89.257509,28.00704 89.056641,27.867188 C 88.70095,27.61971 88.34171,27.377777 87.978516,27.140625 C 87.75576,26.995074 87.532158,26.850582 87.306641,26.708984 C 86.96236,26.492963 86.614234,26.282843 86.263672,26.076172 C 85.999726,25.920456 85.73422,25.767511 85.466797,25.617188 c -0.316118,-0.177579 -0.634222,-0.351551 -0.955078,-0.521485 c -0.30449,-0.161365 -0.611269,-0.31829 -0.919922,-0.472656 C 83.273815,24.46411 82.955095,24.307649 82.632812,24.15625 C 82.33487,24.016196 82.033948,23.881558 81.732422,23.748047 C 81.399973,23.600938 81.067151,23.45545 80.730469,23.316406 C 80.406041,23.182334 80.078253,23.056154 79.75,22.929688 c -0.322406,-0.124141 -0.644719,-0.248532 -0.970703,-0.365235 c -0.331112,-0.118601 -0.665299,-0.229029 -1,-0.339844 C 77.444232,22.113726 77.110031,22.001411 76.771484,21.898438 C 76.423339,21.792499 76.070466,21.697061 75.71875,21.599609 c -0.32306,-0.08947 -0.644732,-0.181452 -0.970703,-0.263671 c -0.398095,-0.100465 -0.800834,-0.189809 -1.203125,-0.279297 c -0.28633,-0.06366 -0.570997,-0.131424 -0.859375,-0.189453 c -0.403541,-0.08125 -0.811331,-0.148677 -1.21875,-0.21875 c -0.312425,-0.05371 -0.622887,-0.1131 -0.9375,-0.160157 c -0.399851,-0.05983 -0.803774,-0.105357 -1.207031,-0.154297 c -0.310616,-0.03769 -0.61909,-0.08213 -0.931641,-0.113281 c -0.410286,-0.04089 -0.824792,-0.06622 -1.238281,-0.0957 c -0.321162,-0.0229 -0.639887,-0.05438 -0.962891,-0.07031 C 65.464133,20.018926 64.734025,20 64,20 Z M 21.677734,52 C 20.592937,55.81758 20,59.84044 20,64 c 0,24.25314 19.74685,44 44,44 c 0.617097,0 1.2308,-0.0157 1.841797,-0.041 c 0.182334,-0.008 0.36316,-0.0215 0.544922,-0.0312 c 0.428798,-0.0231 0.855761,-0.0506 1.28125,-0.0859 c 0.208827,-0.0174 0.417001,-0.0364 0.625,-0.0566 c 0.409318,-0.0399 0.816666,-0.0856 1.222656,-0.13672 c 0.201371,-0.0254 0.402992,-0.05 0.603516,-0.0781 c 0.468644,-0.0656 0.934597,-0.14039 1.398437,-0.2207 c 0.122756,-0.0213 0.246733,-0.0383 0.369141,-0.0605 c 0.601059,-0.10937 1.196703,-0.23159 1.789062,-0.36523 c 0.07195,-0.0162 0.143027,-0.0342 0.214844,-0.0508 c 0.501897,-0.11591 1.000871,-0.24202 1.496094,-0.375 c 0.167203,-0.0449 0.333582,-0.0918 0.5,-0.13867 c 0.414663,-0.11667 0.826681,-0.23874 1.236328,-0.36719 c 0.155003,-0.0486 0.310578,-0.0962 0.464844,-0.14649 c 0.538206,-0.1754 1.072624,-0.35926 1.601562,-0.55468 c 0.0077,-0.003 0.01573,-0.005 0.02344,-0.008 c 0.0019,-7.1e-4 0.0039,-0.001 0.0059,-0.002 c 0.583068,-0.21589 1.161211,-0.44395 1.732422,-0.68359 c 0.0078,-0.003 0.01562,-0.006 0.02344,-0.01 c 0.03499,-0.0147 0.06858,-0.0321 0.103516,-0.0469 c 0.502382,-0.21266 0.999483,-0.43346 1.492187,-0.66407 c 0.114072,-0.0534 0.226305,-0.10971 0.339844,-0.16406 c 0.444202,-0.21259 0.884453,-0.43128 1.320313,-0.6582 c 0.08682,-0.0452 0.173279,-0.0909 0.259765,-0.13672 c 0.470546,-0.24899 0.936185,-0.50611 1.396485,-0.77149 c 0.06161,-0.0355 0.124121,-0.0696 0.185547,-0.10546 c 1.031461,-0.60134 2.035495,-1.24322 3.011718,-1.92383 c 0.08969,-0.0625 0.178373,-0.12629 0.267578,-0.189456 c 0.40066,-0.283767 0.796852,-0.574432 1.1875,-0.871093 c 0.09283,-0.07048 0.185085,-0.141699 0.277344,-0.212891 c 0.391505,-0.302211 0.777273,-0.610854 1.158203,-0.925781 c 0.05249,-0.04337 0.107871,-0.08334 0.160157,-0.126953 l -0.002,-0.002 c 1.025424,-0.855721 2.003512,-1.765315 2.947266,-2.708984 L 104,104 l 0,-24 l -24,0 l 9.458984,9.458984 c -1.184688,1.182894 -2.448184,2.286521 -3.787109,3.296875 c -0.122383,0.09227 -0.24164,0.188556 -0.365234,0.279297 c -0.04295,0.03153 -0.08776,0.06045 -0.13086,0.0918 c -0.443429,0.322784 -0.895011,0.634841 -1.353515,0.9375 c -0.205732,0.135742 -0.414383,0.26878 -0.623047,0.400391 c -0.385023,0.242902 -0.775163,0.476571 -1.169922,0.705078 c -0.237721,0.137613 -0.475659,0.27395 -0.716797,0.40625 c -0.449236,0.246423 -0.904503,0.483395 -1.365234,0.710937 c -0.230243,0.113755 -0.4623,0.225035 -0.695313,0.333985 c -0.397364,0.185699 -0.799895,0.363702 -1.205078,0.535156 c -0.275151,0.116509 -0.551449,0.230022 -0.830078,0.339844 c -0.476653,0.187724 -0.956906,0.367415 -1.443359,0.535156 c -0.214924,0.07418 -0.431672,0.144632 -0.648438,0.214844 c -0.53308,0.172479 -1.071454,0.33441 -1.615234,0.482422 c -0.134287,0.03659 -0.267429,0.07625 -0.402344,0.111328 c -0.591095,0.153493 -1.188354,0.288226 -1.791016,0.412109 c -0.192725,0.03968 -0.386224,0.07668 -0.580078,0.113281 C 70.084562,99.48806 69.427547,99.60018 68.763672,99.6875 c -0.01248,0.0016 -0.02463,0.0042 -0.03711,0.0059 c -0.0052,6.83e-4 -0.0104,0.0013 -0.01562,0.002 c -0.683016,0.08881 -1.373641,0.151022 -2.06836,0.201172 c -0.174574,0.01262 -0.350121,0.02307 -0.52539,0.0332 C 65.416061,99.970144 64.711572,100 64,100 c -9.342014,0 -17.836265,-3.53146 -24.224609,-9.335938 c -0.42589,-0.386964 -0.841247,-0.784606 -1.248047,-1.191406 c -0.4068,-0.406799 -0.804443,-0.822157 -1.191406,-1.248047 C 31.531469,81.836256 28,73.342019 28,64 c 0,-4.21131 0.725005,-8.24855 2.044922,-12 l -8.367188,0 z"
       style="color:#000000;font-style:normal;font-variant:normal;font-weight:normal;font-stretch:normal;font-size:medium;line-height:normal;font-family:sans-serif;text-indent:0;text-align:start;text-decoration:none;text-decoration-line:none;text-decoration-style:solid;text-decoration-color:#000000;letter-spacing:normal;word-spacing:normal;text-transform:none;direction:ltr;block-progression:tb;writing-mode:lr-tb;baseline-shift:baseline;text-anchor:start;white-space:normal;clip-rule:nonzero;display:inline;overflow:visible;visibility:visible;opacity:1;isolation:auto;mix-blend-mode:normal;color-interpolation:sRGB;color-interpolation-filters:linearRGB;solid-color:#000000;solid-opacity:1;fill:#ffffff;fill-opacity:1;fill-rule:nonzero;stroke:none;stroke-width:8;stroke-linecap:square;stroke-linejoin:round;stroke-miterlimit:4;stroke-dasharray:none;stroke-dashoffset:100;stroke-opacity:1;color-rendering:auto;image-rendering:auto;shape-rendering:auto;text-rendering:auto;enable-background:accumulate" />
    <path
       sodipodi:nodetypes="ccc"
       inkscape:connector-curvature="0"
       id="path4980"
       d="M 87.965741,973.53512 L 64,988.36216"
       style="fill:none;fill-rule:evenodd;stroke:#ff4700;stroke-width:8;stroke-linecap:butt;stroke-linejoin:miter;stroke-miterlimit:4;stroke-dasharray:none;stroke-opacity:1"
       class="arrows minute" />
    <path
       sodipodi:nodetypes="ccc"
       inkscape:connector-curvature="0"
       id="path4981"
       d="M 49.498352,980.5689 64,988.36216"
       style="fill:none;fill-rule:evenodd;stroke:#ff4700;stroke-width:8;stroke-linecap:butt;stroke-linejoin:miter;stroke-miterlimit:4;stroke-dasharray:none;stroke-opacity:1"
       class="arrows hour" />
    <path
       d="M 59.5,988 a 1,1 0 1,0 9,0 a 1,1 0 1,0 -9,0"
       style="fill:#ff4700"
       class="circle"
       id="path4982" />
    <path
       sodipodi:nodetypes="cccc"
       inkscape:connector-curvature="0"
       id="path4969"
       d="m 40,956.36216 l 0,-32 l 48,0 l 0,32"
       style="fill:none;fill-rule:evenodd;stroke:#ffffff;stroke-width:8;stroke-linecap:butt;stroke-linejoin:miter;stroke-miterlimit:4;stroke-dasharray:none;stroke-opacity:1" />
    <path
       style="fill:none;fill-rule:evenodd;stroke:#ffffff;stroke-width:8;stroke-linecap:butt;stroke-linejoin:miter;stroke-miterlimit:4;stroke-dasharray:none;stroke-opacity:1"
       d="m 40,1020.3622 l 0,32 l 48,0 l 0,-32"
       id="path4971"
       inkscape:connector-curvature="0"
       sodipodi:nodetypes="cccc" />
  </g>
</svg>
